<?xml version="1.0" encoding="utf-8"?>
<!-- Generator: Adobe Illustrator 25.2.1, SVG Export Plug-In . SVG Version: 6.00 Build 0)  -->
<svg version="1.1" id="Layer_1" xmlns="http://www.w3.org/2000/svg" xmlns:xlink="http://www.w3.org/1999/xlink" x="0px" y="0px"
	 viewBox="0 0 267.9 126" style="enable-background:new 0 0 267.9 126;" xml:space="preserve">
<style type="text/css">
	.st0{fill:#2181C4;}
	.st1{fill:#004876;}
	.st2{fill:#004976;}
</style>
<g>
	<g>
		<path class="st0" d="M108.9,59.9v64.7H72.4l0.2-89.4H36.5l-0.2,89.4H0V59.9v-5.5C0,24.4,24.4,0,54.4,0c30.1,0,54.4,24.4,54.4,54.4
			V59.9z"/>
		<path class="st0" d="M52.9,65.2H43V54.3c0-2.7,2.2-5,5-5h0c2.7,0,5,2.2,5,5V65.2z"/>
		<path class="st0" d="M65.9,65.2H56V54.3c0-2.7,2.2-5,5-5c2.7,0,5,2.2,5,5V65.2z"/>
		<polygon class="st1" points="129.2,124.6 129.2,35.2 175.9,35.2 175.9,50.4 146.6,50.4 146.6,70.5 169.1,70.5 169.1,85.7 
			146.6,85.7 146.6,109.4 177.8,109.4 177.8,124.6 		"/>
		<rect x="250.5" y="35.2" class="st2" width="17.4" height="89.4"/>
		<path class="st2" d="M238.8,99.3c0,14.8-12,26.7-26.7,26.7c-14.8,0-26.7-12-26.7-26.7V99V35.2h17.4v64.5v1.5c0,5,3.9,9.3,8.9,9.6
			c5.3,0.2,9.7-4,9.7-9.3v-1.8V35.2h17.4V99V99.3z"/>
	</g>
</g>
</svg>
